<?xml version="1.0" encoding="iso-8859-1"?>
<!-- Generator: Adobe Illustrator 19.0.0, SVG Export Plug-In . SVG Version: 6.00 Build 0)  -->
<svg version="1.1" id="Layer_1" xmlns="http://www.w3.org/2000/svg" xmlns:xlink="http://www.w3.org/1999/xlink" x="0px" y="0px"
	 viewBox="0 0 491.52 491.52" style="enable-background:new 0 0 491.52 491.52;" xml:space="preserve">
<g>
	<g>
		<rect x="71.68" y="102.4" width="92.16" height="20.48"/>
	</g>
</g>
<g>
	<g>
		<rect x="184.32" y="102.4" width="51.2" height="20.48"/>
	</g>
</g>
<g>
	<g>
		<rect x="71.68" y="256" width="92.16" height="20.48"/>
	</g>
</g>
<g>
	<g>
		<rect x="184.32" y="256" width="51.2" height="20.48"/>
	</g>
</g>
<g>
	<g>
		<rect x="71.68" y="204.8" width="61.44" height="20.48"/>
	</g>
</g>
<g>
	<g>
		<rect x="296.96" y="204.8" width="30.72" height="20.48"/>
	</g>
</g>
<g>
	<g>
		<rect x="153.6" y="204.8" width="122.88" height="20.48"/>
	</g>
</g>
<g>
	<g>
		<rect x="204.8" y="153.6" width="40.96" height="20.48"/>
	</g>
</g>
<g>
	<g>
		<rect x="71.68" y="153.6" width="112.64" height="20.48"/>
	</g>
</g>
<g>
	<g>
		<rect x="266.24" y="153.6" width="153.6" height="20.48"/>
	</g>
</g>
<g>
	<g>
		<rect x="71.68" y="307.2" width="153.6" height="20.48"/>
	</g>
</g>
<g>
	<g>
		<polygon points="391.24,243.64 376.76,258.12 405.36,286.72 376.76,315.32 391.24,329.8 434.32,286.72 		"/>
	</g>
</g>
<g>
	<g>
		<polygon points="309.32,258.12 294.84,243.64 251.76,286.72 294.84,329.8 309.32,315.32 280.72,286.72 		"/>
	</g>
</g>
<g>
	<g>
		
			<rect x="287.878" y="276.562" transform="matrix(0.3711 -0.9286 0.9286 0.3711 -50.5861 498.917)" width="110.284" height="20.48"/>
	</g>
</g>
<g>
	<g>
		<path d="M471.04,358.4V51.2H20.48v307.2H0v44.06l25.24,37.86h441.04l25.24-37.86V358.4H471.04z M40.96,71.68h409.6V358.4H40.96
			V71.68z M471.04,396.26l-15.72,23.58H36.2l-15.72-23.58v-17.38h450.56V396.26z"/>
	</g>
</g>
<g>
	<g>
		<rect x="276.48" y="389.12" width="20.48" height="20.48"/>
	</g>
</g>
<g>
	<g>
		<rect x="235.52" y="389.12" width="20.48" height="20.48"/>
	</g>
</g>
<g>
	<g>
		<rect x="194.56" y="389.12" width="20.48" height="20.48"/>
	</g>
</g>
<g>
</g>
<g>
</g>
<g>
</g>
<g>
</g>
<g>
</g>
<g>
</g>
<g>
</g>
<g>
</g>
<g>
</g>
<g>
</g>
<g>
</g>
<g>
</g>
<g>
</g>
<g>
</g>
<g>
</g>
</svg>
